<mxfile host="Electron" modified="2024-03-11T01:51:38.364Z" agent="Mozilla/5.0 (Windows NT 10.0; Win64; x64) AppleWebKit/537.36 (KHTML, like Gecko) draw.io/24.0.4 Chrome/120.0.6099.109 Electron/28.1.0 Safari/537.36" etag="xIcg-ME3P3P_Cs7a_1cW" version="24.0.4" type="device">
  <diagram name="Page-1" id="90a13364-a465-7bf4-72fc-28e22215d7a0">
    <mxGraphModel dx="1140" dy="780" grid="1" gridSize="10" guides="1" tooltips="1" connect="1" arrows="1" fold="1" page="1" pageScale="1.5" pageWidth="1169" pageHeight="826" background="none" math="0" shadow="0">
      <root>
        <mxCell id="0" style=";html=1;" />
        <mxCell id="1" style=";html=1;" parent="0" />
        <mxCell id="yqi1gA1X3PqYGQ3zIQqi-127" value="" style="whiteSpace=wrap;html=1;fillColor=#FFFEF2;" parent="1" vertex="1">
          <mxGeometry x="580" y="290" width="630" height="750" as="geometry" />
        </mxCell>
        <mxCell id="yqi1gA1X3PqYGQ3zIQqi-115" value="" style="ellipse;whiteSpace=wrap;html=1;fillColor=#6FE286;fontColor=#ffffff;strokeColor=#006EAF;" parent="1" vertex="1">
          <mxGeometry x="1238" y="293" width="91" height="138" as="geometry" />
        </mxCell>
        <mxCell id="3a17f1ce550125da-1" value="&lt;font style=&quot;font-size: 18px;&quot;&gt;Control&lt;br&gt;Software&lt;/font&gt;" style="whiteSpace=wrap;html=1;shadow=1;fontSize=20;fillColor=#FFFEF2;strokeColor=#DEDEDE;strokeWidth=1;dashed=1;" parent="1" vertex="1">
          <mxGeometry x="943" y="784" width="103" height="60" as="geometry" />
        </mxCell>
        <mxCell id="3a17f1ce550125da-2" value="SOC &lt;br&gt;Fabric&lt;br&gt;&lt;br&gt;" style="whiteSpace=wrap;html=1;shadow=1;fontSize=18;fillColor=#f5f5f5;strokeColor=#666666;" parent="1" vertex="1">
          <mxGeometry x="787" y="441" width="170" height="280" as="geometry" />
        </mxCell>
        <mxCell id="3a17f1ce550125da-20" style="edgeStyle=elbowEdgeStyle;rounded=0;html=1;startArrow=open;startFill=0;jettySize=auto;orthogonalLoop=1;fontSize=18;elbow=vertical;strokeWidth=8;endArrow=open;endFill=0;" parent="1" edge="1">
          <mxGeometry relative="1" as="geometry">
            <Array as="points">
              <mxPoint x="757" y="486" />
            </Array>
            <mxPoint x="690" y="486" as="sourcePoint" />
            <mxPoint x="787" y="486" as="targetPoint" />
          </mxGeometry>
        </mxCell>
        <mxCell id="3a17f1ce550125da-10" value="&lt;p style=&quot;line-height: 100%;&quot;&gt;&lt;br&gt;RISC5&lt;br&gt;microcontroller&lt;br&gt;&lt;font style=&quot;font-size: 12px;&quot;&gt;(32-bit)&lt;/font&gt;&lt;/p&gt;" style="whiteSpace=wrap;html=1;shadow=1;fontSize=18;fillColor=#f5f5f5;strokeColor=#666666;" parent="1" vertex="1">
          <mxGeometry x="803.5" y="784" width="132.5" height="120" as="geometry" />
        </mxCell>
        <mxCell id="3a17f1ce550125da-18" style="edgeStyle=elbowEdgeStyle;rounded=0;html=1;startArrow=open;startFill=0;jettySize=auto;orthogonalLoop=1;fontSize=18;elbow=vertical;endArrow=open;endFill=0;strokeWidth=8;" parent="1" source="3a17f1ce550125da-11" target="3a17f1ce550125da-10" edge="1">
          <mxGeometry relative="1" as="geometry" />
        </mxCell>
        <mxCell id="3a17f1ce550125da-11" value="DSP Accelerator" style="whiteSpace=wrap;html=1;shadow=1;fontSize=18;fillColor=#f5f5f5;strokeColor=#666666;" parent="1" vertex="1">
          <mxGeometry x="810" y="968" width="120" height="60" as="geometry" />
        </mxCell>
        <mxCell id="yqi1gA1X3PqYGQ3zIQqi-1" value="ADC_IF#1&lt;br&gt;&lt;div style=&quot;border-color: var(--border-color); text-align: left;&quot;&gt;&lt;span style=&quot;background-color: initial; font-size: 12px;&quot;&gt;- LVDS&lt;/span&gt;&lt;br&gt;&lt;/div&gt;&lt;font style=&quot;border-color: var(--border-color); font-size: 12px;&quot;&gt;&lt;div style=&quot;border-color: var(--border-color); text-align: left;&quot;&gt;&lt;span style=&quot;border-color: var(--border-color); background-color: initial;&quot;&gt;- Control FSM&lt;/span&gt;&lt;/div&gt;&lt;div style=&quot;border-color: var(--border-color); text-align: left;&quot;&gt;&lt;span style=&quot;border-color: var(--border-color); background-color: initial;&quot;&gt;- DDC&lt;/span&gt;&lt;/div&gt;&lt;/font&gt;" style="whiteSpace=wrap;html=1;shadow=1;fontSize=18;fillColor=#f5f5f5;strokeColor=#666666;" parent="1" vertex="1">
          <mxGeometry x="597" y="540" width="93" height="90" as="geometry" />
        </mxCell>
        <mxCell id="yqi1gA1X3PqYGQ3zIQqi-3" value="clock &amp;amp; &lt;br&gt;control" style="text;strokeColor=none;align=left;fillColor=none;html=1;verticalAlign=middle;whiteSpace=wrap;rounded=0;" parent="1" vertex="1">
          <mxGeometry x="1153" y="455" width="47" height="16" as="geometry" />
        </mxCell>
        <mxCell id="yqi1gA1X3PqYGQ3zIQqi-4" value="serial data" style="text;strokeColor=none;align=left;fillColor=none;html=1;verticalAlign=middle;whiteSpace=wrap;rounded=0;" parent="1" vertex="1">
          <mxGeometry x="494" y="493" width="65" height="16" as="geometry" />
        </mxCell>
        <mxCell id="yqi1gA1X3PqYGQ3zIQqi-5" style="edgeStyle=elbowEdgeStyle;rounded=0;html=1;startArrow=none;startFill=0;jettySize=auto;orthogonalLoop=1;fontSize=18;elbow=vertical;" parent="1" edge="1">
          <mxGeometry relative="1" as="geometry">
            <Array as="points">
              <mxPoint x="567" y="510" />
            </Array>
            <mxPoint x="480" y="510" as="sourcePoint" />
            <mxPoint x="597" y="510" as="targetPoint" />
          </mxGeometry>
        </mxCell>
        <mxCell id="yqi1gA1X3PqYGQ3zIQqi-6" style="edgeStyle=elbowEdgeStyle;rounded=0;html=1;startArrow=none;startFill=0;jettySize=auto;orthogonalLoop=1;fontSize=18;elbow=vertical;" parent="1" edge="1">
          <mxGeometry relative="1" as="geometry">
            <Array as="points">
              <mxPoint x="567" y="564" />
            </Array>
            <mxPoint x="597" y="564" as="sourcePoint" />
            <mxPoint x="480" y="564" as="targetPoint" />
          </mxGeometry>
        </mxCell>
        <mxCell id="yqi1gA1X3PqYGQ3zIQqi-7" value="clock &amp;amp; control" style="text;strokeColor=none;align=left;fillColor=none;html=1;verticalAlign=middle;whiteSpace=wrap;rounded=0;" parent="1" vertex="1">
          <mxGeometry x="488" y="547" width="88" height="16" as="geometry" />
        </mxCell>
        <mxCell id="yqi1gA1X3PqYGQ3zIQqi-8" value="serial data" style="text;strokeColor=none;align=left;fillColor=none;html=1;verticalAlign=middle;whiteSpace=wrap;rounded=0;" parent="1" vertex="1">
          <mxGeometry x="490" y="592" width="67" height="16" as="geometry" />
        </mxCell>
        <mxCell id="yqi1gA1X3PqYGQ3zIQqi-10" style="edgeStyle=elbowEdgeStyle;rounded=0;html=1;startArrow=open;startFill=0;jettySize=auto;orthogonalLoop=1;fontSize=18;elbow=vertical;strokeWidth=8;endArrow=open;endFill=0;" parent="1" edge="1">
          <mxGeometry relative="1" as="geometry">
            <Array as="points">
              <mxPoint x="759" y="583" />
            </Array>
            <mxPoint x="692" y="583" as="sourcePoint" />
            <mxPoint x="789" y="583" as="targetPoint" />
          </mxGeometry>
        </mxCell>
        <mxCell id="yqi1gA1X3PqYGQ3zIQqi-11" style="edgeStyle=elbowEdgeStyle;rounded=0;html=1;startArrow=open;startFill=0;jettySize=auto;orthogonalLoop=1;fontSize=18;elbow=vertical;endArrow=open;endFill=0;strokeWidth=8;exitX=0.5;exitY=0;exitDx=0;exitDy=0;" parent="1" source="3a17f1ce550125da-10" edge="1">
          <mxGeometry relative="1" as="geometry">
            <mxPoint x="870" y="770" as="sourcePoint" />
            <mxPoint x="870" y="720" as="targetPoint" />
          </mxGeometry>
        </mxCell>
        <mxCell id="yqi1gA1X3PqYGQ3zIQqi-12" value="UART&lt;br&gt;&lt;div style=&quot;text-align: left;&quot;&gt;&lt;span style=&quot;background-color: initial; font-size: 12px;&quot;&gt;- 115.2kbps&lt;/span&gt;&lt;/div&gt;&lt;span style=&quot;background-color: initial; font-size: 12px;&quot;&gt;&lt;div style=&quot;text-align: left;&quot;&gt;&lt;span style=&quot;background-color: initial;&quot;&gt;- 8 Data bits&lt;/span&gt;&lt;/div&gt;&lt;div style=&quot;text-align: left;&quot;&gt;&lt;span style=&quot;background-color: initial;&quot;&gt;- 1 Stop bit&lt;/span&gt;&lt;/div&gt;&lt;div style=&quot;text-align: left;&quot;&gt;&lt;span style=&quot;background-color: initial;&quot;&gt;- no parity&lt;/span&gt;&lt;/div&gt;&lt;/span&gt;" style="whiteSpace=wrap;html=1;shadow=1;fontSize=18;fillColor=#f5f5f5;strokeColor=#666666;" parent="1" vertex="1">
          <mxGeometry x="599" y="639" width="93" height="98" as="geometry" />
        </mxCell>
        <mxCell id="yqi1gA1X3PqYGQ3zIQqi-13" style="edgeStyle=elbowEdgeStyle;rounded=0;html=1;startArrow=open;startFill=0;jettySize=auto;orthogonalLoop=1;fontSize=18;elbow=horizontal;strokeWidth=2;endArrow=open;endFill=0;exitX=1;exitY=0.5;exitDx=0;exitDy=0;" parent="1" edge="1">
          <mxGeometry relative="1" as="geometry">
            <Array as="points">
              <mxPoint x="730" y="680" />
            </Array>
            <mxPoint x="690" y="688" as="sourcePoint" />
            <mxPoint x="730" y="670" as="targetPoint" />
          </mxGeometry>
        </mxCell>
        <mxCell id="yqi1gA1X3PqYGQ3zIQqi-17" value="uart_tx" style="text;strokeColor=none;align=left;fillColor=none;html=1;verticalAlign=middle;whiteSpace=wrap;rounded=0;" parent="1" vertex="1">
          <mxGeometry x="493" y="663" width="100" height="16" as="geometry" />
        </mxCell>
        <mxCell id="yqi1gA1X3PqYGQ3zIQqi-23" style="edgeStyle=elbowEdgeStyle;rounded=0;html=1;startArrow=none;startFill=0;jettySize=auto;orthogonalLoop=1;fontSize=18;elbow=vertical;" parent="1" edge="1">
          <mxGeometry relative="1" as="geometry">
            <Array as="points">
              <mxPoint x="567" y="609" />
            </Array>
            <mxPoint x="480" y="609" as="sourcePoint" />
            <mxPoint x="597" y="609" as="targetPoint" />
          </mxGeometry>
        </mxCell>
        <mxCell id="yqi1gA1X3PqYGQ3zIQqi-25" style="edgeStyle=elbowEdgeStyle;rounded=0;html=1;startArrow=none;startFill=0;jettySize=auto;orthogonalLoop=1;fontSize=18;elbow=vertical;" parent="1" edge="1">
          <mxGeometry relative="1" as="geometry">
            <Array as="points">
              <mxPoint x="568" y="680" />
            </Array>
            <mxPoint x="598" y="680" as="sourcePoint" />
            <mxPoint x="481" y="680" as="targetPoint" />
          </mxGeometry>
        </mxCell>
        <mxCell id="yqi1gA1X3PqYGQ3zIQqi-26" style="edgeStyle=elbowEdgeStyle;rounded=0;html=1;startArrow=none;startFill=0;jettySize=auto;orthogonalLoop=1;fontSize=18;elbow=vertical;" parent="1" edge="1">
          <mxGeometry relative="1" as="geometry">
            <Array as="points">
              <mxPoint x="568" y="701" />
            </Array>
            <mxPoint x="481" y="701" as="sourcePoint" />
            <mxPoint x="598" y="701" as="targetPoint" />
          </mxGeometry>
        </mxCell>
        <mxCell id="yqi1gA1X3PqYGQ3zIQqi-27" value="uart_rx" style="text;strokeColor=none;align=left;fillColor=none;html=1;verticalAlign=middle;whiteSpace=wrap;rounded=0;" parent="1" vertex="1">
          <mxGeometry x="494" y="684" width="46" height="16" as="geometry" />
        </mxCell>
        <mxCell id="yqi1gA1X3PqYGQ3zIQqi-28" value="" style="verticalLabelPosition=bottom;aspect=fixed;html=1;shape=mxgraph.salesforce.financial_services;" parent="1" vertex="1">
          <mxGeometry x="381" y="647" width="97.6" height="101.67" as="geometry" />
        </mxCell>
        <mxCell id="yqi1gA1X3PqYGQ3zIQqi-29" value="" style="verticalLabelPosition=bottom;aspect=fixed;html=1;shape=mxgraph.salesforce.automation;" parent="1" vertex="1">
          <mxGeometry x="340" y="694" width="80" height="77.6" as="geometry" />
        </mxCell>
        <mxCell id="yqi1gA1X3PqYGQ3zIQqi-30" value="&lt;font style=&quot;font-size: 18px;&quot;&gt;PC with Manual CLI and Automation SW&lt;/font&gt;" style="text;strokeColor=none;align=left;fillColor=none;html=1;verticalAlign=middle;whiteSpace=wrap;rounded=0;" parent="1" vertex="1">
          <mxGeometry x="335.2" y="785" width="166.8" height="16" as="geometry" />
        </mxCell>
        <mxCell id="yqi1gA1X3PqYGQ3zIQqi-40" value="" style="group" parent="1" vertex="1" connectable="0">
          <mxGeometry x="428.8" y="449.8" width="67" height="71.19999999999999" as="geometry" />
        </mxCell>
        <mxCell id="yqi1gA1X3PqYGQ3zIQqi-37" value="" style="verticalLabelPosition=bottom;verticalAlign=top;html=1;shape=offPageConnector;rounded=0;size=0.5;rotation=-90;" parent="yqi1gA1X3PqYGQ3zIQqi-40" vertex="1">
          <mxGeometry x="-2.1000000000000227" y="2.099999999999966" width="71.2" height="67" as="geometry" />
        </mxCell>
        <mxCell id="yqi1gA1X3PqYGQ3zIQqi-38" value="" style="image;aspect=fixed;perimeter=ellipsePerimeter;html=1;align=center;shadow=0;dashed=0;spacingTop=3;image=img/lib/active_directory/windows_domain.svg;direction=south;" parent="yqi1gA1X3PqYGQ3zIQqi-40" vertex="1">
          <mxGeometry x="6.199999999999989" y="2.3899999999999864" width="56.79" height="66.81" as="geometry" />
        </mxCell>
        <mxCell id="yqi1gA1X3PqYGQ3zIQqi-41" value="" style="group" parent="1" vertex="1" connectable="0">
          <mxGeometry x="429.8" y="549.8" width="67" height="71.19999999999999" as="geometry" />
        </mxCell>
        <mxCell id="yqi1gA1X3PqYGQ3zIQqi-42" value="" style="verticalLabelPosition=bottom;verticalAlign=top;html=1;shape=offPageConnector;rounded=0;size=0.5;rotation=-90;" parent="yqi1gA1X3PqYGQ3zIQqi-41" vertex="1">
          <mxGeometry x="-2.1000000000000227" y="2.099999999999966" width="71.2" height="67" as="geometry" />
        </mxCell>
        <mxCell id="yqi1gA1X3PqYGQ3zIQqi-43" value="" style="image;aspect=fixed;perimeter=ellipsePerimeter;html=1;align=center;shadow=0;dashed=0;spacingTop=3;image=img/lib/active_directory/windows_domain.svg;direction=south;" parent="yqi1gA1X3PqYGQ3zIQqi-41" vertex="1">
          <mxGeometry x="6.199999999999989" y="2.3899999999999864" width="56.79" height="66.81" as="geometry" />
        </mxCell>
        <mxCell id="yqi1gA1X3PqYGQ3zIQqi-44" value="&lt;font style=&quot;font-size: 18px;&quot;&gt;2 x &lt;b&gt;24-bit&lt;br&gt;&lt;/b&gt;ADC with Rx&lt;br&gt;Transducer,&lt;br&gt;&lt;b&gt;2.5MSPS&lt;/b&gt;&lt;/font&gt;" style="text;strokeColor=none;align=left;fillColor=none;html=1;verticalAlign=middle;whiteSpace=wrap;rounded=0;" parent="1" vertex="1">
          <mxGeometry x="323" y="491" width="112" height="95" as="geometry" />
        </mxCell>
        <mxCell id="yqi1gA1X3PqYGQ3zIQqi-45" value="DDS&lt;br&gt;&lt;div style=&quot;text-align: left;&quot;&gt;&lt;span style=&quot;font-size: 12px; background-color: initial;&quot;&gt;- Digital Sin/Cos&lt;/span&gt;&lt;/div&gt;&lt;div style=&quot;text-align: left;&quot;&gt;&lt;span style=&quot;font-size: 12px; background-color: initial;&quot;&gt;&amp;nbsp; &amp;nbsp;clock Synthesizer&lt;/span&gt;&lt;/div&gt;" style="whiteSpace=wrap;html=1;shadow=1;fontSize=18;fillColor=#f5f5f5;strokeColor=#666666;" parent="1" vertex="1">
          <mxGeometry x="653" y="305" width="110" height="80" as="geometry" />
        </mxCell>
        <mxCell id="yqi1gA1X3PqYGQ3zIQqi-46" value="&lt;font style=&quot;font-size: 18px;&quot;&gt;Baseband&lt;br&gt;Digital Signal Processing&lt;/font&gt;" style="whiteSpace=wrap;html=1;shadow=1;fontSize=20;strokeWidth=1;dashed=1;fillColor=#FFFAE8;strokeColor=#DEDEDE;" parent="1" vertex="1">
          <mxGeometry x="942" y="850" width="103" height="179" as="geometry" />
        </mxCell>
        <mxCell id="yqi1gA1X3PqYGQ3zIQqi-47" value="SDRAM&lt;br&gt;&lt;div style=&quot;text-align: left;&quot;&gt;&lt;span style=&quot;font-size: 12px; background-color: initial;&quot;&gt;- 8MBytes&lt;/span&gt;&lt;/div&gt;&lt;font style=&quot;font-size: 12px;&quot;&gt;&lt;div style=&quot;text-align: left;&quot;&gt;&lt;span style=&quot;background-color: initial;&quot;&gt;- organized in&amp;nbsp;&lt;/span&gt;&lt;/div&gt;&lt;div style=&quot;text-align: left;&quot;&gt;&lt;span style=&quot;background-color: initial;&quot;&gt;&amp;nbsp; 32-bit words&lt;br&gt;&lt;/span&gt;&lt;/div&gt;&lt;/font&gt;" style="whiteSpace=wrap;html=1;shadow=1;fontSize=18;fillColor=#f5f5f5;strokeColor=#666666;" parent="1" vertex="1">
          <mxGeometry x="823.5" y="298" width="93" height="90" as="geometry" />
        </mxCell>
        <mxCell id="yqi1gA1X3PqYGQ3zIQqi-48" style="edgeStyle=elbowEdgeStyle;rounded=0;html=1;startArrow=open;startFill=0;jettySize=auto;orthogonalLoop=1;fontSize=18;elbow=vertical;strokeWidth=8;endArrow=open;endFill=0;exitX=0.5;exitY=1;exitDx=0;exitDy=0;" parent="1" source="yqi1gA1X3PqYGQ3zIQqi-47" edge="1">
          <mxGeometry relative="1" as="geometry">
            <Array as="points" />
            <mxPoint x="860" y="449.8" as="sourcePoint" />
            <mxPoint x="870" y="440" as="targetPoint" />
          </mxGeometry>
        </mxCell>
        <mxCell id="yqi1gA1X3PqYGQ3zIQqi-49" value="IMEM&lt;br&gt;&lt;div style=&quot;text-align: left;&quot;&gt;&lt;span style=&quot;font-size: 12px; background-color: initial;&quot;&gt;- 32kBytes&lt;/span&gt;&lt;/div&gt;&lt;font style=&quot;font-size: 12px;&quot;&gt;&lt;div style=&quot;text-align: left;&quot;&gt;&lt;span style=&quot;background-color: initial;&quot;&gt;- organized in&amp;nbsp;&lt;/span&gt;&lt;/div&gt;&lt;div style=&quot;text-align: left;&quot;&gt;&lt;span style=&quot;background-color: initial;&quot;&gt;&amp;nbsp; 32-bit words&lt;br&gt;&lt;/span&gt;&lt;/div&gt;&lt;/font&gt;" style="whiteSpace=wrap;html=1;shadow=1;fontSize=18;fillColor=#f5f5f5;strokeColor=#666666;" parent="1" vertex="1">
          <mxGeometry x="599" y="786.6" width="93" height="90" as="geometry" />
        </mxCell>
        <mxCell id="yqi1gA1X3PqYGQ3zIQqi-50" style="edgeStyle=elbowEdgeStyle;rounded=0;html=1;startArrow=none;startFill=0;jettySize=auto;orthogonalLoop=1;fontSize=18;elbow=vertical;entryX=0.5;entryY=0;entryDx=0;entryDy=0;strokeWidth=3;exitX=0.5;exitY=1;exitDx=0;exitDy=0;endArrow=openThin;endFill=0;" parent="1" source="yqi1gA1X3PqYGQ3zIQqi-12" target="yqi1gA1X3PqYGQ3zIQqi-49" edge="1">
          <mxGeometry relative="1" as="geometry">
            <Array as="points">
              <mxPoint x="650" y="780" />
            </Array>
            <mxPoint x="655" y="760" as="sourcePoint" />
            <mxPoint x="650.5" y="798.6" as="targetPoint" />
          </mxGeometry>
        </mxCell>
        <mxCell id="yqi1gA1X3PqYGQ3zIQqi-51" value="Live update of uC FW load, from PC" style="text;strokeColor=none;align=left;fillColor=none;html=1;verticalAlign=middle;whiteSpace=wrap;rounded=0;" parent="1" vertex="1">
          <mxGeometry x="652" y="757" width="100" height="16" as="geometry" />
        </mxCell>
        <mxCell id="yqi1gA1X3PqYGQ3zIQqi-52" style="edgeStyle=elbowEdgeStyle;rounded=0;html=1;startArrow=open;startFill=0;jettySize=auto;orthogonalLoop=1;fontSize=18;elbow=horizontal;strokeWidth=8;endArrow=open;endFill=0;exitX=1;exitY=0.5;exitDx=0;exitDy=0;" parent="1" source="yqi1gA1X3PqYGQ3zIQqi-49" edge="1">
          <mxGeometry relative="1" as="geometry">
            <Array as="points">
              <mxPoint x="740" y="790" />
            </Array>
            <mxPoint x="702" y="721" as="sourcePoint" />
            <mxPoint x="800" y="832" as="targetPoint" />
          </mxGeometry>
        </mxCell>
        <mxCell id="yqi1gA1X3PqYGQ3zIQqi-53" value="DMEM&lt;br&gt;&lt;div style=&quot;text-align: left;&quot;&gt;&lt;span style=&quot;font-size: 12px; background-color: initial;&quot;&gt;- TCM,&amp;nbsp;&lt;/span&gt;&lt;span style=&quot;background-color: initial; font-size: 12px;&quot;&gt;32kBytes&lt;/span&gt;&lt;/div&gt;&lt;font style=&quot;font-size: 12px;&quot;&gt;&lt;div style=&quot;text-align: left;&quot;&gt;&lt;span style=&quot;background-color: initial;&quot;&gt;- organized in&amp;nbsp;&lt;/span&gt;&lt;/div&gt;&lt;div style=&quot;text-align: left;&quot;&gt;&lt;span style=&quot;background-color: initial;&quot;&gt;&amp;nbsp; 32-bit words&lt;br&gt;&lt;/span&gt;&lt;/div&gt;&lt;/font&gt;" style="whiteSpace=wrap;html=1;shadow=1;fontSize=18;fillColor=#f5f5f5;strokeColor=#666666;" parent="1" vertex="1">
          <mxGeometry x="1107" y="785.6" width="93" height="90" as="geometry" />
        </mxCell>
        <mxCell id="yqi1gA1X3PqYGQ3zIQqi-54" style="edgeStyle=elbowEdgeStyle;rounded=0;html=1;startArrow=open;startFill=0;jettySize=auto;orthogonalLoop=1;fontSize=18;elbow=horizontal;strokeWidth=8;endArrow=open;endFill=0;exitX=0;exitY=0.5;exitDx=0;exitDy=0;entryX=1;entryY=0.75;entryDx=0;entryDy=0;" parent="1" source="yqi1gA1X3PqYGQ3zIQqi-53" target="3a17f1ce550125da-2" edge="1">
          <mxGeometry relative="1" as="geometry">
            <Array as="points">
              <mxPoint x="1070" y="780" />
            </Array>
            <mxPoint x="1075" y="661" as="sourcePoint" />
            <mxPoint x="960" y="720" as="targetPoint" />
          </mxGeometry>
        </mxCell>
        <mxCell id="yqi1gA1X3PqYGQ3zIQqi-55" value="0x0000_0000&#xa;0x1FFF_FFFF" style="text;whiteSpace=wrap;fontFamily=Courier New;fontSize=8;" parent="1" vertex="1">
          <mxGeometry x="899" y="658" width="65" height="35" as="geometry" />
        </mxCell>
        <mxCell id="yqi1gA1X3PqYGQ3zIQqi-56" value="0x4000_0000&#xa;0x5FFF_FFFF" style="text;whiteSpace=wrap;fontFamily=Courier New;fontSize=8;" parent="1" vertex="1">
          <mxGeometry x="801.5" y="437" width="61.5" height="23" as="geometry" />
        </mxCell>
        <mxCell id="yqi1gA1X3PqYGQ3zIQqi-57" value="0x8000_0000&#xa;0x9FFF_FFFF" style="text;whiteSpace=wrap;fontFamily=Courier New;fontSize=8;" parent="1" vertex="1">
          <mxGeometry x="786.5" y="491" width="62.5" height="29" as="geometry" />
        </mxCell>
        <mxCell id="yqi1gA1X3PqYGQ3zIQqi-58" value="0xA000_0000&#xa;0xBFFF_FFFF" style="text;whiteSpace=wrap;fontFamily=Courier New;fontSize=8;" parent="1" vertex="1">
          <mxGeometry x="786.5" y="587" width="60.5" height="23" as="geometry" />
        </mxCell>
        <mxCell id="yqi1gA1X3PqYGQ3zIQqi-62" value="&lt;b style=&quot;font-size: 18px;&quot;&gt;M&lt;/b&gt;" style="whiteSpace=wrap;html=1;fillColor=#0050ef;fontColor=#ffffff;strokeColor=#001DBC;fontSize=18;" parent="1" vertex="1">
          <mxGeometry x="800" y="823" width="20" height="17" as="geometry" />
        </mxCell>
        <mxCell id="yqi1gA1X3PqYGQ3zIQqi-63" value="&lt;b style=&quot;font-size: 18px;&quot;&gt;M&lt;/b&gt;" style="whiteSpace=wrap;html=1;fillColor=#0050ef;fontColor=#ffffff;strokeColor=#001DBC;fontSize=18;" parent="1" vertex="1">
          <mxGeometry x="859" y="890" width="20" height="17" as="geometry" />
        </mxCell>
        <mxCell id="yqi1gA1X3PqYGQ3zIQqi-64" value="&lt;b style=&quot;font-size: 18px;&quot;&gt;M&lt;/b&gt;" style="whiteSpace=wrap;html=1;fillColor=#0050ef;fontColor=#ffffff;strokeColor=#001DBC;fontSize=18;" parent="1" vertex="1">
          <mxGeometry x="860" y="782" width="20" height="17" as="geometry" />
        </mxCell>
        <mxCell id="yqi1gA1X3PqYGQ3zIQqi-65" value="&lt;b style=&quot;font-size: 18px;&quot;&gt;M&lt;/b&gt;" style="whiteSpace=wrap;html=1;fillColor=#0050ef;fontColor=#ffffff;strokeColor=#001DBC;fontSize=18;" parent="1" vertex="1">
          <mxGeometry x="788" y="573" width="20" height="17" as="geometry" />
        </mxCell>
        <mxCell id="yqi1gA1X3PqYGQ3zIQqi-66" value="&lt;b style=&quot;font-size: 18px;&quot;&gt;M&lt;/b&gt;" style="whiteSpace=wrap;html=1;fillColor=#0050ef;fontColor=#ffffff;strokeColor=#001DBC;fontSize=18;" parent="1" vertex="1">
          <mxGeometry x="788" y="477" width="20" height="17" as="geometry" />
        </mxCell>
        <mxCell id="yqi1gA1X3PqYGQ3zIQqi-67" value="&lt;b style=&quot;font-size: 18px;&quot;&gt;M&lt;/b&gt;" style="whiteSpace=wrap;html=1;fillColor=#0050ef;fontColor=#ffffff;strokeColor=#001DBC;fontSize=18;" parent="1" vertex="1">
          <mxGeometry x="938" y="642" width="20" height="17" as="geometry" />
        </mxCell>
        <mxCell id="yqi1gA1X3PqYGQ3zIQqi-68" value="&lt;b style=&quot;font-size: 18px;&quot;&gt;M&lt;/b&gt;" style="whiteSpace=wrap;html=1;fillColor=#0050ef;fontColor=#ffffff;strokeColor=#001DBC;fontSize=18;" parent="1" vertex="1">
          <mxGeometry x="860" y="441" width="20" height="17" as="geometry" />
        </mxCell>
        <mxCell id="yqi1gA1X3PqYGQ3zIQqi-69" style="edgeStyle=elbowEdgeStyle;rounded=0;html=1;startArrow=open;startFill=0;jettySize=auto;orthogonalLoop=1;fontSize=18;elbow=vertical;strokeWidth=8;endArrow=open;endFill=0;" parent="1" edge="1">
          <mxGeometry relative="1" as="geometry">
            <Array as="points">
              <mxPoint x="1024" y="536" />
            </Array>
            <mxPoint x="957" y="536" as="sourcePoint" />
            <mxPoint x="1054" y="536" as="targetPoint" />
          </mxGeometry>
        </mxCell>
        <mxCell id="yqi1gA1X3PqYGQ3zIQqi-71" value="DAC_IF&lt;br&gt;#0/1&lt;br&gt;&lt;div style=&quot;text-align: left;&quot;&gt;&lt;span style=&quot;font-size: 12px; background-color: initial;&quot;&gt;- LVCMOS33&lt;/span&gt;&lt;/div&gt;&lt;font style=&quot;font-size: 12px;&quot;&gt;&lt;div style=&quot;text-align: left;&quot;&gt;&lt;span style=&quot;background-color: initial;&quot;&gt;- Control FSM&lt;/span&gt;&lt;/div&gt;&lt;div style=&quot;text-align: left;&quot;&gt;&lt;span style=&quot;background-color: initial;&quot;&gt;- DUC&lt;/span&gt;&lt;/div&gt;&lt;/font&gt;" style="whiteSpace=wrap;html=1;shadow=1;fontSize=18;fillColor=#f5f5f5;strokeColor=#666666;" parent="1" vertex="1">
          <mxGeometry x="1050" y="460" width="97" height="150" as="geometry" />
        </mxCell>
        <mxCell id="yqi1gA1X3PqYGQ3zIQqi-73" value="" style="group" parent="1" vertex="1" connectable="0">
          <mxGeometry x="1260.8" y="449.8" width="67" height="71.19999999999999" as="geometry" />
        </mxCell>
        <mxCell id="yqi1gA1X3PqYGQ3zIQqi-74" value="" style="verticalLabelPosition=bottom;verticalAlign=top;html=1;shape=offPageConnector;rounded=0;size=0.5;rotation=-90;" parent="yqi1gA1X3PqYGQ3zIQqi-73" vertex="1">
          <mxGeometry x="-2.1000000000000227" y="2.099999999999966" width="71.2" height="67" as="geometry" />
        </mxCell>
        <mxCell id="yqi1gA1X3PqYGQ3zIQqi-75" value="" style="image;aspect=fixed;perimeter=ellipsePerimeter;html=1;align=center;shadow=0;dashed=0;spacingTop=3;image=img/lib/active_directory/windows_domain.svg;direction=south;" parent="yqi1gA1X3PqYGQ3zIQqi-73" vertex="1">
          <mxGeometry x="6.199999999999989" y="2.3899999999999864" width="56.79" height="66.81" as="geometry" />
        </mxCell>
        <mxCell id="yqi1gA1X3PqYGQ3zIQqi-76" value="" style="group" parent="1" vertex="1" connectable="0">
          <mxGeometry x="1261.8" y="549.8" width="67" height="71.19999999999999" as="geometry" />
        </mxCell>
        <mxCell id="yqi1gA1X3PqYGQ3zIQqi-77" value="" style="verticalLabelPosition=bottom;verticalAlign=top;html=1;shape=offPageConnector;rounded=0;size=0.5;rotation=-90;" parent="yqi1gA1X3PqYGQ3zIQqi-76" vertex="1">
          <mxGeometry x="-2.1000000000000227" y="2.099999999999966" width="71.2" height="67" as="geometry" />
        </mxCell>
        <mxCell id="yqi1gA1X3PqYGQ3zIQqi-78" value="" style="image;aspect=fixed;perimeter=ellipsePerimeter;html=1;align=center;shadow=0;dashed=0;spacingTop=3;image=img/lib/active_directory/windows_domain.svg;direction=south;" parent="yqi1gA1X3PqYGQ3zIQqi-76" vertex="1">
          <mxGeometry x="6.199999999999989" y="2.3899999999999864" width="56.79" height="66.81" as="geometry" />
        </mxCell>
        <mxCell id="yqi1gA1X3PqYGQ3zIQqi-79" value="&lt;font style=&quot;font-size: 18px;&quot;&gt;2 x &lt;b&gt;10-bit&lt;br&gt;&lt;/b&gt;DAC with Tx&lt;br&gt;Transducer,&lt;br&gt;&lt;b&gt;25MSPS&lt;/b&gt;&lt;/font&gt;" style="text;strokeColor=none;align=left;fillColor=none;html=1;verticalAlign=middle;whiteSpace=wrap;rounded=0;" parent="1" vertex="1">
          <mxGeometry x="1328" y="486" width="112" height="95" as="geometry" />
        </mxCell>
        <mxCell id="yqi1gA1X3PqYGQ3zIQqi-80" style="edgeStyle=elbowEdgeStyle;rounded=0;html=1;startArrow=none;startFill=0;jettySize=auto;orthogonalLoop=1;fontSize=18;elbow=vertical;strokeWidth=6;endArrow=none;endFill=0;" parent="1" edge="1">
          <mxGeometry relative="1" as="geometry">
            <Array as="points">
              <mxPoint x="1190" y="537" />
            </Array>
            <mxPoint x="1150" y="537" as="sourcePoint" />
            <mxPoint x="1230" y="537" as="targetPoint" />
          </mxGeometry>
        </mxCell>
        <mxCell id="yqi1gA1X3PqYGQ3zIQqi-81" value="parallel &lt;br&gt;data" style="text;strokeColor=none;align=left;fillColor=none;html=1;verticalAlign=middle;whiteSpace=wrap;rounded=0;" parent="1" vertex="1">
          <mxGeometry x="1153" y="510" width="47" height="16" as="geometry" />
        </mxCell>
        <mxCell id="yqi1gA1X3PqYGQ3zIQqi-83" value="clock &amp;amp;&lt;br&gt;control" style="text;strokeColor=none;align=left;fillColor=none;html=1;verticalAlign=middle;whiteSpace=wrap;rounded=0;" parent="1" vertex="1">
          <mxGeometry x="1151" y="598" width="49" height="16" as="geometry" />
        </mxCell>
        <mxCell id="yqi1gA1X3PqYGQ3zIQqi-84" style="edgeStyle=elbowEdgeStyle;rounded=0;html=1;startArrow=none;startFill=0;jettySize=auto;orthogonalLoop=1;fontSize=18;elbow=vertical;" parent="1" edge="1">
          <mxGeometry relative="1" as="geometry">
            <Array as="points">
              <mxPoint x="1235" y="606" />
            </Array>
            <mxPoint x="1148" y="606" as="sourcePoint" />
            <mxPoint x="1265" y="606" as="targetPoint" />
          </mxGeometry>
        </mxCell>
        <mxCell id="yqi1gA1X3PqYGQ3zIQqi-22" style="edgeStyle=elbowEdgeStyle;rounded=0;html=1;startArrow=none;startFill=0;jettySize=auto;orthogonalLoop=1;fontSize=18;elbow=vertical;" parent="1" edge="1">
          <mxGeometry relative="1" as="geometry">
            <Array as="points">
              <mxPoint x="1234" y="463" />
            </Array>
            <mxPoint x="1147" y="463" as="sourcePoint" />
            <mxPoint x="1264" y="463" as="targetPoint" />
          </mxGeometry>
        </mxCell>
        <mxCell id="yqi1gA1X3PqYGQ3zIQqi-86" style="edgeStyle=elbowEdgeStyle;rounded=0;html=1;startArrow=none;startFill=0;jettySize=auto;orthogonalLoop=1;fontSize=18;elbow=vertical;strokeWidth=6;endArrow=openThin;endFill=0;entryX=0.75;entryY=1;entryDx=0;entryDy=0;" parent="1" edge="1">
          <mxGeometry relative="1" as="geometry">
            <Array as="points">
              <mxPoint x="1208" y="500" />
            </Array>
            <mxPoint x="1230" y="540" as="sourcePoint" />
            <mxPoint x="1267.853594618388" y="500.1900887894926" as="targetPoint" />
          </mxGeometry>
        </mxCell>
        <mxCell id="yqi1gA1X3PqYGQ3zIQqi-87" style="edgeStyle=elbowEdgeStyle;rounded=0;html=1;startArrow=none;startFill=0;jettySize=auto;orthogonalLoop=1;fontSize=18;elbow=vertical;strokeWidth=6;endArrow=openThin;endFill=0;entryX=0.75;entryY=1;entryDx=0;entryDy=0;" parent="1" edge="1">
          <mxGeometry relative="1" as="geometry">
            <Array as="points">
              <mxPoint x="1210" y="573" />
            </Array>
            <mxPoint x="1230" y="530" as="sourcePoint" />
            <mxPoint x="1270" y="573" as="targetPoint" />
          </mxGeometry>
        </mxCell>
        <mxCell id="yqi1gA1X3PqYGQ3zIQqi-88" value="&lt;b style=&quot;font-size: 18px;&quot;&gt;M&lt;/b&gt;" style="whiteSpace=wrap;html=1;fillColor=#0050ef;fontColor=#ffffff;strokeColor=#001DBC;fontSize=18;" parent="1" vertex="1">
          <mxGeometry x="937" y="528" width="20" height="17" as="geometry" />
        </mxCell>
        <mxCell id="yqi1gA1X3PqYGQ3zIQqi-89" value="&lt;b style=&quot;font-size: 18px;&quot;&gt;M&lt;/b&gt;" style="whiteSpace=wrap;html=1;fillColor=#0050ef;fontColor=#ffffff;strokeColor=#001DBC;fontSize=18;" parent="1" vertex="1">
          <mxGeometry x="936" y="469" width="20" height="17" as="geometry" />
        </mxCell>
        <mxCell id="yqi1gA1X3PqYGQ3zIQqi-90" value="0xC000_0000&#xa;0xDFFF_FFFF" style="text;whiteSpace=wrap;fontFamily=Courier New;fontSize=8;" parent="1" vertex="1">
          <mxGeometry x="900.5" y="540" width="61.5" height="32" as="geometry" />
        </mxCell>
        <mxCell id="yqi1gA1X3PqYGQ3zIQqi-91" value="0x2000_0000&#xa;0x3FFF_FFFF" style="text;whiteSpace=wrap;fontFamily=Courier New;fontSize=8;" parent="1" vertex="1">
          <mxGeometry x="899.5" y="481" width="61.5" height="32" as="geometry" />
        </mxCell>
        <mxCell id="yqi1gA1X3PqYGQ3zIQqi-92" value="CSR&lt;br&gt;&lt;div style=&quot;text-align: left;&quot;&gt;&lt;span style=&quot;font-size: 12px; background-color: initial;&quot;&gt;- Config/Status Regs&lt;/span&gt;&lt;/div&gt;&lt;div style=&quot;text-align: left;&quot;&gt;&lt;span style=&quot;background-color: initial; font-size: 12px;&quot;&gt;- UART Access I/F&lt;/span&gt;&lt;/div&gt;&lt;div style=&quot;text-align: left;&quot;&gt;&lt;span style=&quot;font-size: 12px; background-color: initial;&quot;&gt;- GPIO&amp;nbsp;&lt;/span&gt;&lt;/div&gt;" style="whiteSpace=wrap;html=1;shadow=1;fontSize=18;fillColor=#f5f5f5;strokeColor=#666666;" parent="1" vertex="1">
          <mxGeometry x="952" y="299" width="130" height="90" as="geometry" />
        </mxCell>
        <mxCell id="yqi1gA1X3PqYGQ3zIQqi-93" style="edgeStyle=elbowEdgeStyle;rounded=0;html=1;startArrow=open;startFill=0;jettySize=auto;orthogonalLoop=1;fontSize=18;elbow=vertical;strokeWidth=8;endArrow=open;endFill=0;entryX=0.5;entryY=1;entryDx=0;entryDy=0;" parent="1" target="yqi1gA1X3PqYGQ3zIQqi-92" edge="1">
          <mxGeometry relative="1" as="geometry">
            <Array as="points">
              <mxPoint x="1024" y="477" />
            </Array>
            <mxPoint x="957" y="477" as="sourcePoint" />
            <mxPoint x="1054" y="477" as="targetPoint" />
          </mxGeometry>
        </mxCell>
        <mxCell id="yqi1gA1X3PqYGQ3zIQqi-94" style="edgeStyle=elbowEdgeStyle;rounded=0;html=1;startArrow=none;startFill=0;jettySize=auto;orthogonalLoop=1;fontSize=18;elbow=vertical;exitX=0.25;exitY=1;exitDx=0;exitDy=0;" parent="1" source="yqi1gA1X3PqYGQ3zIQqi-45" target="3a17f1ce550125da-8" edge="1">
          <mxGeometry relative="1" as="geometry">
            <Array as="points">
              <mxPoint x="623" y="493" />
            </Array>
            <mxPoint x="536" y="493" as="sourcePoint" />
            <mxPoint x="653" y="493" as="targetPoint" />
          </mxGeometry>
        </mxCell>
        <mxCell id="yqi1gA1X3PqYGQ3zIQqi-96" style="edgeStyle=elbowEdgeStyle;rounded=0;html=1;startArrow=none;startFill=0;jettySize=auto;orthogonalLoop=1;fontSize=18;elbow=vertical;exitX=0.75;exitY=1;exitDx=0;exitDy=0;" parent="1" source="yqi1gA1X3PqYGQ3zIQqi-45" edge="1">
          <mxGeometry relative="1" as="geometry">
            <Array as="points">
              <mxPoint x="750" y="410" />
            </Array>
            <mxPoint x="730" y="390" as="sourcePoint" />
            <mxPoint x="760" y="410" as="targetPoint" />
          </mxGeometry>
        </mxCell>
        <mxCell id="yqi1gA1X3PqYGQ3zIQqi-97" value="to DAC_IF" style="text;strokeColor=none;align=left;fillColor=none;html=1;verticalAlign=middle;whiteSpace=wrap;rounded=0;" parent="1" vertex="1">
          <mxGeometry x="759" y="402" width="67" height="16" as="geometry" />
        </mxCell>
        <mxCell id="yqi1gA1X3PqYGQ3zIQqi-98" style="edgeStyle=elbowEdgeStyle;rounded=0;html=1;startArrow=none;startFill=0;jettySize=auto;orthogonalLoop=1;fontSize=18;elbow=vertical;" parent="1" edge="1">
          <mxGeometry relative="1" as="geometry">
            <Array as="points">
              <mxPoint x="1084" y="437" />
            </Array>
            <mxPoint x="1080" y="437" as="sourcePoint" />
            <mxPoint x="1098" y="462" as="targetPoint" />
          </mxGeometry>
        </mxCell>
        <mxCell id="yqi1gA1X3PqYGQ3zIQqi-99" value="from &lt;br&gt;DDS" style="text;strokeColor=none;align=left;fillColor=none;html=1;verticalAlign=middle;whiteSpace=wrap;rounded=0;" parent="1" vertex="1">
          <mxGeometry x="1054" y="430" width="32" height="16" as="geometry" />
        </mxCell>
        <mxCell id="yqi1gA1X3PqYGQ3zIQqi-100" value="from/to&lt;br&gt;CSR" style="text;strokeColor=none;align=center;fillColor=none;html=1;verticalAlign=middle;whiteSpace=wrap;rounded=0;" parent="1" vertex="1">
          <mxGeometry x="714" y="649" width="32" height="16" as="geometry" />
        </mxCell>
        <mxCell id="yqi1gA1X3PqYGQ3zIQqi-101" value="from/to&lt;br&gt;UART" style="text;strokeColor=none;align=center;fillColor=none;html=1;verticalAlign=middle;whiteSpace=wrap;rounded=0;" parent="1" vertex="1">
          <mxGeometry x="913" y="401" width="32" height="12" as="geometry" />
        </mxCell>
        <mxCell id="yqi1gA1X3PqYGQ3zIQqi-103" style="edgeStyle=elbowEdgeStyle;rounded=0;html=1;startArrow=none;startFill=0;jettySize=auto;orthogonalLoop=1;fontSize=18;elbow=vertical;" parent="1" edge="1">
          <mxGeometry relative="1" as="geometry">
            <Array as="points">
              <mxPoint x="616" y="514" />
            </Array>
            <mxPoint x="682" y="494" as="sourcePoint" />
            <mxPoint x="682" y="546" as="targetPoint" />
          </mxGeometry>
        </mxCell>
        <mxCell id="yqi1gA1X3PqYGQ3zIQqi-102" style="edgeStyle=elbowEdgeStyle;rounded=0;html=1;startArrow=open;startFill=0;jettySize=auto;orthogonalLoop=1;fontSize=18;elbow=horizontal;strokeWidth=2;endArrow=open;endFill=0;exitX=1;exitY=0.5;exitDx=0;exitDy=0;" parent="1" edge="1">
          <mxGeometry relative="1" as="geometry">
            <Array as="points">
              <mxPoint x="985" y="399" />
            </Array>
            <mxPoint x="945" y="407" as="sourcePoint" />
            <mxPoint x="985" y="389" as="targetPoint" />
          </mxGeometry>
        </mxCell>
        <mxCell id="3a17f1ce550125da-8" value="ADC_IF#0&lt;br&gt;&lt;div style=&quot;text-align: left;&quot;&gt;&lt;span style=&quot;font-size: 12px; background-color: initial;&quot;&gt;- LVDS&lt;/span&gt;&lt;/div&gt;&lt;font style=&quot;font-size: 12px;&quot;&gt;&lt;div style=&quot;text-align: left;&quot;&gt;&lt;span style=&quot;background-color: initial;&quot;&gt;- Control FSM&lt;/span&gt;&lt;/div&gt;&lt;div style=&quot;text-align: left;&quot;&gt;&lt;span style=&quot;background-color: initial;&quot;&gt;- DDC&lt;/span&gt;&lt;/div&gt;&lt;/font&gt;" style="whiteSpace=wrap;html=1;shadow=1;fontSize=18;fillColor=#f5f5f5;strokeColor=#666666;" parent="1" vertex="1">
          <mxGeometry x="597" y="440" width="93" height="90" as="geometry" />
        </mxCell>
        <mxCell id="yqi1gA1X3PqYGQ3zIQqi-104" value="&lt;b style=&quot;font-size: 18px;&quot;&gt;M&lt;/b&gt;" style="whiteSpace=wrap;html=1;fillColor=#0050ef;fontColor=#ffffff;strokeColor=#001DBC;fontSize=18;" parent="1" vertex="1">
          <mxGeometry x="635" y="731" width="20" height="17" as="geometry" />
        </mxCell>
        <mxCell id="yqi1gA1X3PqYGQ3zIQqi-106" value="" style="html=1;shape=mxgraph.electrical.electro-mechanical.pushbutton;aspect=fixed;elSwitchState=off;" parent="1" vertex="1">
          <mxGeometry x="1259" y="315" width="47" height="12.53" as="geometry" />
        </mxCell>
        <mxCell id="yqi1gA1X3PqYGQ3zIQqi-108" value="" style="verticalLabelPosition=bottom;shadow=0;dashed=0;align=center;html=1;verticalAlign=top;shape=mxgraph.electrical.opto_electronics.led_2;pointerEvents=1;" parent="1" vertex="1">
          <mxGeometry x="1264" y="352" width="40" height="33" as="geometry" />
        </mxCell>
        <mxCell id="yqi1gA1X3PqYGQ3zIQqi-109" value="" style="html=1;shape=mxgraph.electrical.electro-mechanical.pushbutton;aspect=fixed;elSwitchState=off;" parent="1" vertex="1">
          <mxGeometry x="1259" y="334" width="47" height="12.53" as="geometry" />
        </mxCell>
        <mxCell id="yqi1gA1X3PqYGQ3zIQqi-110" value="" style="verticalLabelPosition=bottom;shadow=0;dashed=0;align=center;html=1;verticalAlign=top;shape=mxgraph.electrical.opto_electronics.led_2;pointerEvents=1;" parent="1" vertex="1">
          <mxGeometry x="1264" y="383" width="40" height="33" as="geometry" />
        </mxCell>
        <mxCell id="yqi1gA1X3PqYGQ3zIQqi-112" value="&lt;font style=&quot;font-size: 16px;&quot;&gt;- Push Buttons&lt;br&gt;- LEDs&lt;br&gt;- Misc. Board Control &amp;amp;&lt;br&gt;&amp;nbsp; &amp;nbsp;Monitoring Functions&lt;/font&gt;" style="text;strokeColor=none;align=left;fillColor=none;html=1;verticalAlign=middle;whiteSpace=wrap;rounded=0;" parent="1" vertex="1">
          <mxGeometry x="1333" y="307" width="174" height="84" as="geometry" />
        </mxCell>
        <mxCell id="yqi1gA1X3PqYGQ3zIQqi-113" style="edgeStyle=elbowEdgeStyle;rounded=0;html=1;startArrow=open;startFill=0;jettySize=auto;orthogonalLoop=1;fontSize=18;elbow=vertical;strokeWidth=7;endArrow=open;endFill=0;strokeColor=#828282;" parent="1" edge="1">
          <mxGeometry relative="1" as="geometry">
            <Array as="points">
              <mxPoint x="1149" y="369" />
            </Array>
            <mxPoint x="1082" y="369" as="sourcePoint" />
            <mxPoint x="1240" y="369" as="targetPoint" />
          </mxGeometry>
        </mxCell>
        <mxCell id="yqi1gA1X3PqYGQ3zIQqi-116" value="&lt;b&gt;&lt;font color=&quot;#ffffff&quot; style=&quot;font-size: 18px;&quot;&gt;Fractional&lt;br&gt;PLL&lt;/font&gt;&lt;/b&gt;" style="whiteSpace=wrap;html=1;fillColor=#1ba1e2;fontColor=#ffffff;strokeColor=#006EAF;" parent="1" vertex="1">
          <mxGeometry x="377.8" y="943" width="110.2" height="60" as="geometry" />
        </mxCell>
        <mxCell id="yqi1gA1X3PqYGQ3zIQqi-117" value="fpll_clk_1" style="text;strokeColor=none;align=left;fillColor=none;html=1;verticalAlign=middle;whiteSpace=wrap;rounded=0;" parent="1" vertex="1">
          <mxGeometry x="489" y="932" width="59" height="16" as="geometry" />
        </mxCell>
        <mxCell id="yqi1gA1X3PqYGQ3zIQqi-119" style="edgeStyle=elbowEdgeStyle;rounded=0;html=1;startArrow=none;startFill=0;jettySize=auto;orthogonalLoop=1;fontSize=18;elbow=vertical;" parent="1" edge="1">
          <mxGeometry relative="1" as="geometry">
            <Array as="points" />
            <mxPoint x="488" y="950" as="sourcePoint" />
            <mxPoint x="527" y="950" as="targetPoint" />
          </mxGeometry>
        </mxCell>
        <mxCell id="yqi1gA1X3PqYGQ3zIQqi-122" value="fpll_clk_2" style="text;strokeColor=none;align=left;fillColor=none;html=1;verticalAlign=middle;whiteSpace=wrap;rounded=0;" parent="1" vertex="1">
          <mxGeometry x="488" y="954" width="59" height="16" as="geometry" />
        </mxCell>
        <mxCell id="yqi1gA1X3PqYGQ3zIQqi-123" style="edgeStyle=elbowEdgeStyle;rounded=0;html=1;startArrow=none;startFill=0;jettySize=auto;orthogonalLoop=1;fontSize=18;elbow=vertical;" parent="1" edge="1">
          <mxGeometry relative="1" as="geometry">
            <Array as="points" />
            <mxPoint x="488" y="973" as="sourcePoint" />
            <mxPoint x="527" y="973" as="targetPoint" />
          </mxGeometry>
        </mxCell>
        <mxCell id="yqi1gA1X3PqYGQ3zIQqi-124" value="fpll_clk_3" style="text;strokeColor=none;align=left;fillColor=none;html=1;verticalAlign=middle;whiteSpace=wrap;rounded=0;" parent="1" vertex="1">
          <mxGeometry x="489" y="980" width="59" height="16" as="geometry" />
        </mxCell>
        <mxCell id="yqi1gA1X3PqYGQ3zIQqi-125" style="edgeStyle=elbowEdgeStyle;rounded=0;html=1;startArrow=none;startFill=0;jettySize=auto;orthogonalLoop=1;fontSize=18;elbow=vertical;" parent="1" edge="1">
          <mxGeometry relative="1" as="geometry">
            <Array as="points" />
            <mxPoint x="488" y="998" as="sourcePoint" />
            <mxPoint x="527" y="998" as="targetPoint" />
          </mxGeometry>
        </mxCell>
        <mxCell id="yqi1gA1X3PqYGQ3zIQqi-126" value="&lt;font style=&quot;&quot;&gt;&lt;font style=&quot;font-size: 60px;&quot;&gt;eduSOC&lt;/font&gt;&lt;/font&gt;&lt;div&gt;&lt;font style=&quot;&quot;&gt;&lt;font style=&quot;font-size: 31px;&quot;&gt;* DSP * AI * SDR * Acceleration *&lt;/font&gt;&lt;br&gt;&lt;/font&gt;&lt;/div&gt;" style="text;strokeColor=#3700CC;align=center;fillColor=#9033D6;html=1;verticalAlign=middle;whiteSpace=wrap;rounded=0;fontColor=#ffffff;" parent="1" vertex="1">
          <mxGeometry x="580" y="1043" width="632" height="107" as="geometry" />
        </mxCell>
        <mxCell id="yqi1gA1X3PqYGQ3zIQqi-128" value="clock &amp;amp; control" style="text;strokeColor=none;align=left;fillColor=none;html=1;verticalAlign=middle;whiteSpace=wrap;rounded=0;" parent="1" vertex="1">
          <mxGeometry x="487" y="450" width="88" height="16" as="geometry" />
        </mxCell>
        <mxCell id="yqi1gA1X3PqYGQ3zIQqi-130" style="edgeStyle=elbowEdgeStyle;rounded=0;html=1;startArrow=none;startFill=0;jettySize=auto;orthogonalLoop=1;fontSize=18;elbow=vertical;" parent="1" edge="1">
          <mxGeometry relative="1" as="geometry">
            <Array as="points">
              <mxPoint x="566" y="468" />
            </Array>
            <mxPoint x="596" y="468" as="sourcePoint" />
            <mxPoint x="479" y="468" as="targetPoint" />
          </mxGeometry>
        </mxCell>
        <mxCell id="yqi1gA1X3PqYGQ3zIQqi-131" value="&lt;b style=&quot;&quot;&gt;&lt;font style=&quot;font-size: 28px;&quot;&gt;20K LUT FPGA&amp;nbsp;&lt;/font&gt;&lt;/b&gt;" style="text;strokeColor=none;align=center;fillColor=none;html=1;verticalAlign=middle;whiteSpace=wrap;rounded=0;" parent="1" vertex="1">
          <mxGeometry x="595" y="938.5" width="128" height="95" as="geometry" />
        </mxCell>
      </root>
    </mxGraphModel>
  </diagram>
</mxfile>
